{"title":"Dead Man Down 2013 1080p x264 AC3 -alrmothe","uid":8605327,"size":8740539265,"categoryP":"video","categoryS":"hd___movies","magnet":"?xt=urn:btih:08e037bcfd50713606349de2bad81ad7ebb0874b&amp;dn=Dead+Man+Down+2013+1080p+x264+AC3+-alrmothe&amp;tr=udp%3A%2F%2Ftracker.openbittorrent.com%3A80&amp;tr=udp%3A%2F%2Fopen.demonii.com%3A1337&amp;tr=udp%3A%2F%2Ftracker.coppersurfer.tk%3A6969&amp;tr=udp%3A%2F%2Fexodus.desync.com%3A6969","seeders":1,"leechers":0,"uploader":".alrmothe","files":7,"time":1372001765,"description":"***************************************************************\n\nDead Man Down 2013 1080p x264 AC3 -alrmothe\n\n***************************************************************\n\nTitle : Dead Man Down\nYEAR: 2013\nGENRE : Action | Crime | Drama      \nimdb URL :http://www.imdb.com/title/tt2101341/\nFormat: Matroska\nOverall bit rate: 9893 kbps\nFormat version: Version 4 / Version 2\nFile size:  8.14 GiB\nDuration:  1h 57mn\nSub:Arabic,English\n***************************************************************\n\nVideo\nFormat : AVC \nFormat/Info : Advanced Video Codec \nFormat profile : &lt;a class=&quot;__cf_email__&quot; href=&quot;/cdn-cgi/l/email-protection&quot; data-cfemail=&quot;420a2b252a020e766c73&quot;&gt;[email&amp;#160;protected]&lt;/a&gt;&lt;script cf-hash='f9e31' type=&quot;text/javascript&quot;&gt;\n/* &lt;![CDATA[ */!function(){try{var t=&quot;currentScript&quot;in document?document.currentScript:function(){for(var t=document.getElementsByTagName(&quot;script&quot;),e=t.length;e--;)if(t[e].getAttribute(&quot;cf-hash&quot;))return t[e]}();if(t&amp;&amp;t.previousSibling){var e,r,n,i,c=t.previousSibling,a=c.getAttribute(&quot;data-cfemail&quot;);if(a){for(e=&quot;&quot;,r=parseInt(a.substr(0,2),16),n=2;a.length-n;n+=2)i=parseInt(a.substr(n,2),16)^r,e+=String.fromCharCode(i);e=document.createTextNode(e),c.parentNode.replaceChild(e,c)}}}catch(u){}}();/* ]]&gt; */&lt;/script&gt; \nFormat settings, CABAC : Yes \nFormat settings, ReFrames : 4 frames  \nCodec ID : V_MPEG4/ISO/AVC  \nBit rate : 9250 kbps \nWidth : 1918 pixels \nHeight : 800 pixels \nDisplay aspect ratio : 2.40:1 \nFrame rate : 23.976 fps \nColor space : YUV \nChroma subsampling : 4:2:0 \nBit depth : 8 bits \nScan type : Progressive \nBits/(Pixel*Frame) : 0.251 \nStream size: 7.45 GiB \n\n\nAudio#1 \nFormat: AC3\nBit rate :640 Kbps\nChannel(s) : 6 channels\nChannel positions:Front: L C R, Side: L R, LFE\nSampling rate: 48.0 KHz\nBit depth: 16bits\nCompression mode: Lossy\nStream size: 539 GiB\nLanguage : English\n\n***************************************************************\n\nScreenshots &lt;a href=&quot;\nhttp://img14.imageshack.us/img14/1068/z3h.png&quot; rel=&quot;nofollow&quot; target=&quot;_NEW&quot;&gt;\nhttp://img14.imageshack.us/img14/1068/z3h.png&lt;/a&gt; &lt;a href=&quot;\nhttp://img826.imageshack.us/img826/3977/xk2.png&quot; rel=&quot;nofollow&quot; target=&quot;_NEW&quot;&gt;\nhttp://img826.imageshack.us/img826/3977/xk2.png&lt;/a&gt; &lt;a href=&quot;\nhttp://img69.imageshack.us/img69/6532/imfk.png&quot; rel=&quot;nofollow&quot; target=&quot;_NEW&quot;&gt;\nhttp://img69.imageshack.us/img69/6532/imfk.png&lt;/a&gt; &lt;a href=&quot;\nhttp://img580.imageshack.us/img580/6559/2hep.png&quot; rel=&quot;nofollow&quot; target=&quot;_NEW&quot;&gt;\nhttp://img580.imageshack.us/img580/6559/2hep.png&lt;/a&gt; &lt;a href=&quot;\nhttp://img844.imageshack.us/img844/6143/qk4.png&quot; rel=&quot;nofollow&quot; target=&quot;_NEW&quot;&gt;\nhttp://img844.imageshack.us/img844/6143/qk4.png&lt;/a&gt;\n\n","torrent":{"xt":"urn:btih:08e037bcfd50713606349de2bad81ad7ebb0874b","amp;dn":"Dead+Man+Down+2013+1080p+x264+AC3+-alrmothe","amp;tr":["udp%3A%2F%2Ftracker.openbittorrent.com%3A80","udp%3A%2F%2Fopen.demonii.com%3A1337","udp%3A%2F%2Ftracker.coppersurfer.tk%3A6969","udp%3A%2F%2Fexodus.desync.com%3A6969"],"infoHash":"08e037bcfd50713606349de2bad81ad7ebb0874b","infoHashBuffer":{"type":"Buffer","data":[8,224,55,188,253,80,113,54,6,52,157,226,186,216,26,215,235,176,135,75]},"announce":[],"urlList":[]}}